<svg t="1689043276644" class="icon" viewBox="0 0 1024 1024" version="1.1" xmlns="http://www.w3.org/2000/svg" p-id="10547" width="200" height="200"><path d="M512 512m-493.714286 0a493.714286 493.714286 0 1 0 987.428572 0 493.714286 493.714286 0 1 0-987.428572 0Z" fill="#94FFF2" p-id="10548"></path><path d="M512 1024a512 512 0 1 1 512-512 512 512 0 0 1-512 512z m0-987.428571a475.428571 475.428571 0 1 0 475.428571 475.428571A475.428571 475.428571 0 0 0 512 36.571429z" fill="#2C2C5F" p-id="10549"></path><path d="M239.177143 739.657143h-3.657143a22.857143 22.857143 0 0 1-18.285714-20.114286 289.097143 289.097143 0 0 1 83.931428-235.702857 279.588571 279.588571 0 0 1 203.154286-83.2V292.571429a22.857143 22.857143 0 0 1 36.571429-18.285715l257.828571 185.782857a22.857143 22.857143 0 0 1 0 36.571429L539.977143 689.371429a22.857143 22.857143 0 0 1-36.571429-18.285715v-99.84c-113.92-5.668571-193.645714 45.531429-243.565714 155.062857a22.857143 22.857143 0 0 1-20.662857 13.348572z m247.954286-214.491429a408.137143 408.137143 0 0 1 41.508571 2.194286A22.857143 22.857143 0 0 1 548.571429 550.034286v75.52l197.302857-146.285715L548.571429 337.188571v87.405715a22.857143 22.857143 0 0 1-25.234286 22.674285 234.971429 234.971429 0 0 0-191.451429 68.571429 244.662857 244.662857 0 0 0-63.268571 108.251429 268.251429 268.251429 0 0 1 218.514286-98.925715z" fill="#2C2C5F" p-id="10550"></path></svg>