<svg t="1689314088281" class="icon" viewBox="0 0 1024 1024" version="1.1" xmlns="http://www.w3.org/2000/svg" p-id="11036" width="200" height="200"><path d="M512 64C262.4 64 64 262.4 64 512s198.4 448 448 448 448-198.4 448-448-198.4-448-448-448z m262.4 313.6h-12.8c-12.8 0-25.6 6.4-38.4 12.8-12.8 6.4-19.2 12.8-25.6 32L640 537.6c-19.2 38.4-38.4 83.2-64 128 0 6.4-6.4 19.2-12.8 38.4s-12.8 32-19.2 51.2v6.4h-57.6l-6.4-6.4c-32-64-57.6-121.6-83.2-179.2-19.2-51.2-44.8-108.8-70.4-160-6.4-12.8-12.8-19.2-25.6-25.6-12.8-6.4-25.6-12.8-38.4-12.8h-12.8v-51.2h236.8V384h-12.8c-6.4-6.4-12.8 0-32 0h-6.4c0 6.4 0 6.4 6.4 12.8 12.8 25.6 32 64 51.2 115.2 19.2 38.4 32 76.8 44.8 102.4 6.4-19.2 19.2-38.4 32-64 12.8-38.4 32-76.8 51.2-121.6l6.4-19.2v-12.8c0-6.4-6.4-6.4-12.8-12.8-6.4 0-12.8 0-12.8-6.4H576v-51.2h204.8v51.2z" fill="#d81e06" p-id="11037"></path></svg>