<svg t="1689643061082" class="icon" viewBox="0 0 1024 1024" version="1.1" xmlns="http://www.w3.org/2000/svg" p-id="92135" width="200" height="200"><path d="M704.2 960.1c-16-16-16-41.9 0-57.9L892.4 714c16-16 41.9-16 57.9 0s16 41.9 0 57.9L762.1 960.1c-16 16-41.9 16-57.9 0z" fill="#1296db" p-id="92136"></path><path d="M621 823.8c16-16 41.9-16 57.9 0l78.4 78.4c16 16 16 41.9 0 57.9s-41.9 16-57.9 0L621 881.7c-16-15.9-16-41.9 0-57.9zM477.8 62.1c-159.2 0-288.2 129-288.2 288.2s129 288.2 288.2 288.2S766 509.5 766 350.3 637 62.1 477.8 62.1z m0 494.5c-113.9 0-206.3-92.4-206.3-206.3S363.9 144 477.8 144s206.3 92.4 206.3 206.3-92.4 206.3-206.3 206.3z" fill="#1296db" p-id="92137"></path><path d="M105.6 933.3m-40.9 0a40.9 40.9 0 1 0 81.8 0 40.9 40.9 0 1 0-81.8 0Z" fill="#1296db" p-id="92138"></path><path d="M694.6 667.6m-40.9 0a40.9 40.9 0 1 0 81.8 0 40.9 40.9 0 1 0-81.8 0Z" fill="#1296db" p-id="92139"></path><path d="M721.7 637.1c-68.6-50.3-153.1-80-244.7-80-215.5 0-392.6 164.6-412.4 375h81.9C166 766.8 306.5 638.5 477 638.5c72.9 0 140.3 23.5 195.2 63.3l47.3-53.6c0.1-4.1 0.9-7.9 2.2-11.1z" fill="#1296db" p-id="92140"></path></svg>