<svg t="1690531103717" class="icon" viewBox="0 0 1024 1024" version="1.1" xmlns="http://www.w3.org/2000/svg" p-id="20231" width="200" height="200"><path d="M512 64.4C264.8 64.4 64.4 264.8 64.4 512S264.8 959.6 512 959.6 959.6 759.2 959.6 512 759.2 64.4 512 64.4z m267.9 532.2L616.4 760.1c-21.4 21.3-56.9 21.3-78.2 0L315.5 537.4c-21.3-21.3-40.3-64-40.3-94.8V312.2c0-30.7 26-56.8 56.8-56.8h130.3c30.8 0 73.5 19 94.8 40.3l222.8 222.7c21.3 21.4 21.3 56.9 0 78.2z" fill="#1890FF" p-id="20232"></path><path d="M405.4 329c-30.7 0-56.8 26-56.8 56.8 0 30.7 26 56.8 56.8 56.8s56.9-26.1 56.8-56.8c0-30.7-26-56.8-56.8-56.8z" fill="#1890FF" p-id="20233"></path></svg>