<svg t="1690531013938" class="icon" viewBox="0 0 1024 1024" version="1.1" xmlns="http://www.w3.org/2000/svg" p-id="15655" width="200" height="200"><path d="M0 0h1024v1024H0z" fill="#1296db" opacity=".01" p-id="15656"></path><path d="M542.788267 292.522667a34.133333 34.133333 0 0 0-61.610667 0l-60.8256 127.488-140.049067 18.432a34.133333 34.133333 0 0 0-19.0464 58.606933l102.468267 97.28-25.736533 138.888533a34.133333 34.133333 0 0 0 49.834666 36.215467L512 702.0544l124.142933 67.3792a34.133333 34.133333 0 0 0 49.834667-36.215467l-25.7024-138.922666 102.468267-97.245867a34.133333 34.133333 0 0 0-19.0464-58.5728l-140.049067-18.466133-60.859733-127.522134z m-68.8128 173.602133L512 386.4576l37.9904 79.6672a34.133333 34.133333 0 0 0 26.350933 19.114667l87.517867 11.537066-64 60.757334a34.133333 34.133333 0 0 0-10.069333 30.993066l16.042666 86.801067-77.550933-42.120533a34.133333 34.133333 0 0 0-32.5632 0l-77.585067 42.120533 16.0768-86.801067a34.133333 34.133333 0 0 0-10.069333-30.958933l-64-60.757333 87.483733-11.537067a34.133333 34.133333 0 0 0 26.350934-19.1488z" fill="#1296db" p-id="15657"></path><path d="M102.4 34.133333a34.133333 34.133333 0 0 0-34.133333 34.133334v136.533333a34.133333 34.133333 0 0 0 34.133333 34.133333h34.133333v473.361067a102.4 102.4 0 0 0 49.732267 87.790933l273.066667 163.84a102.4 102.4 0 0 0 105.3696 0l273.066666-163.84A102.4 102.4 0 0 0 887.466667 712.2944V238.933333h34.133333a34.133333 34.133333 0 0 0 34.133333-34.133333V68.266667a34.133333 34.133333 0 0 0-34.133333-34.133334H102.4z m102.4 678.161067V238.933333h614.4v473.361067a34.133333 34.133333 0 0 1-16.554667 29.252267l-273.066666 163.84a34.133333 34.133333 0 0 1-35.157334 0l-273.066666-163.84A34.133333 34.133333 0 0 1 204.8 712.2944zM887.466667 102.4v68.266667H136.533333V102.4h750.933334z" fill="#1296db" p-id="15658"></path></svg>