<svg t="1688109287462" class="icon" viewBox="0 0 1024 1024" version="1.1" xmlns="http://www.w3.org/2000/svg" p-id="10233" width="200" height="200"><path d="M802.31424 765.07648l-6.92224 3.07712c81.50016-76.04224 132.48-184.38144 132.48-304.64 0-230.07232-186.50624-416.57856-416.57856-416.57856C281.22624 46.93504 94.72 233.44128 94.72 463.5136c0 118.3744 49.3824 225.20832 128.65536 301.04576l-50.19648 116.63872s-5.58592 17.83296 16.18432 18.88256c21.77024 1.0496 105.20064-10.78272 105.20064-10.78272s11.94496-5.00224 21.76512 13.2352c9.81504 18.23232 49.09056 75.74016 49.09056 75.74016s15.83104 25.11872 28.9536 2.7392c10.3424-17.63328 37.78048-80.56832 48.95232-106.4704a419.40992 419.40992 0 0 0 138.60864-0.44544c10.60352 24.61696 39.15264 90.25536 49.75104 108.31872 13.12256 22.37952 28.9536-2.7392 28.9536-2.7392s39.27552-57.50272 49.09568-75.74016c9.80992-18.23744 21.76-13.2352 21.76-13.2352s83.43552 11.83744 105.20576 10.78272c21.77024-1.04448 16.18432-18.88256 16.18432-18.88256l-50.57024-117.52448zM187.29472 463.5136c0-178.944 145.06496-324.00384 324.00384-324.00384s324.00384 145.06496 324.00384 324.00384-145.05984 324.00384-324.00384 324.00384-324.00384-145.06496-324.00384-324.00384z"  p-id="10234"></path></svg>